<svg id="Layer_1" xmlns="http://www.w3.org/2000/svg" viewBox="0 0 128 128"><style>.st0{fill:#ee4c14}</style><title>Checked and Approved _L</title><g id="Large"><path class="st0" d="M108.2 87.8H21.5c-.7 0-1.2-.6-1.2-1.2s.6-1.2 1.2-1.2h86.7c.7 0 1.2.6 1.2 1.2s-.5 1.2-1.2 1.2zM58.5 73.9c-11.1 0-20.1-9-20.1-20s9-20.1 20-20.1 20.1 9 20.1 20c0 9.9-7.2 18.3-17 19.8-.9.2-1.9.3-3 .3zm.1-37.5c-.9 0-1.8.1-2.7.2-4.6.7-8.7 3.2-11.5 6.9-5.7 7.8-4 18.7 3.8 24.4s18.7 4 24.4-3.8 4-18.7-3.8-24.4c-2.9-2.1-6.5-3.3-10.2-3.3zm-15.1 6.4zM85.4 79.6H44.6c-.7 0-1.2-.6-1.2-1.2s.6-1.2 1.2-1.2h40.8c.7 0 1.2.6 1.2 1.2s-.5 1.2-1.2 1.2z"/><path class="st0" d="M110.9 79.6h-9.4c-.7 0-1.2-.6-1.2-1.2s.6-1.2 1.2-1.2h9.4c2.5 0 4.5-2 4.5-4.5v-2c0-2.6-4.7-4.7-6.4-5.3l-17.7-3.9c-.1 0-.3-.1-.4-.2l-9.5-6h-.1c-1.4-.9-2.9-1.7-4.5-2.4-.6-.3-.9-1-.7-1.7.3-.6 1-.9 1.7-.7 1.8.7 3.4 1.6 5 2.6L92 59l17.6 3.8h.1c1.4.5 2.7 1.1 3.9 1.9 2.8 1.7 4.2 3.7 4.2 5.9v2c0 3.9-3.1 7-6.9 7zM28.5 79.6H22c-3.1 0-5.6-2.5-5.6-5.6v-8.3c0-3.4 2.4-6.3 5.8-6.8l2.9-.5 13.3-7.3c.6-.3 1.4-.1 1.7.5.3.6.1 1.4-.5 1.7l-13.5 7.4c-.1.1-.3.1-.4.1l-3.1.5c-2.1.3-3.7 2.2-3.7 4.3V74c0 1.7 1.4 3.1 3.1 3.1h6.5c.7 0 1.2.6 1.2 1.2s-.5 1.3-1.2 1.3z"/><path class="st0" d="M116.6 72.5h-2c-4.7 0-8-1.2-9.9-3.5-1.4-1.7-1.9-4-1.6-6.2.1-.7.8-1.1 1.5-1 .7.1 1.1.8 1 1.5-.2 1.5.2 2.9 1.1 4.1 1.4 1.7 4.1 2.6 7.9 2.6h2c.7 0 1.2.6 1.2 1.2s-.5 1.3-1.2 1.3zM93.5 87.8c-.3 0-.7 0-1-.1-5.1-.5-8.8-5.1-8.3-10.2s5.1-8.8 10.2-8.3 8.8 5.1 8.3 10.2c-.5 4.8-4.5 8.4-9.2 8.4zm0-16.1c-3.8 0-6.8 3-6.8 6.8s3 6.8 6.8 6.8c3.5 0 6.4-2.6 6.7-6.1.4-3.7-2.3-7.1-6-7.5h-.7z"/><path class="st0" d="M93.5 82.8H93c-2.4-.2-4.1-2.4-3.8-4.7.2-2.4 2.4-4.1 4.7-3.8 2.4.2 4.1 2.4 3.8 4.7-.2 2.2-2 3.8-4.2 3.8zm0-6.1c-1 0-1.8.8-1.8 1.8s.8 1.8 1.8 1.8c.9 0 1.7-.7 1.8-1.6.1-1-.6-1.9-1.6-2h-.2zm3 2.1zM36.6 87.8c-.3 0-.7 0-1-.1-5.1-.5-8.8-5.1-8.3-10.2s5.1-8.8 10.2-8.3 8.8 5.1 8.3 10.2c-.5 4.8-4.5 8.4-9.2 8.4zm0-16.1c-3.8 0-6.8 3-6.8 6.8s3 6.8 6.8 6.8c3.5 0 6.4-2.6 6.7-6.1.4-3.7-2.3-7-6-7.5h-.7z"/><path class="st0" d="M36.6 82.8h-.5c-2.4-.1-4.2-2.1-4-4.5.1-2.4 2.1-4.2 4.5-4 2.4.1 4.2 2.1 4 4.5-.1 2.2-1.9 3.9-4 4zm0-6.1c-1 0-1.8.9-1.7 1.9 0 .9.7 1.6 1.5 1.7 1 .1 1.9-.6 2-1.6.1-1-.6-1.9-1.6-2h-.2zM35 42.9c-.3 0-.5-.1-.7-.2L10.6 25.8c-.6-.4-.7-1.2-.3-1.7l4.8-6.6c.4-.5 1.2-.7 1.7-.3L40.5 34c.6.4.7 1.2.3 1.7L36 42.4c-.2.3-.6.5-1 .5zM13.1 24.5l21.6 15.4 3.3-4.6L16.5 20l-3.4 4.5z"/><path class="st0" d="M43.5 44c-.3 0-.5-.1-.7-.2l-6.1-4.5c-.5-.5-.6-1.3-.1-1.8.4-.4 1.1-.5 1.6-.2l6.1 4.5c.5.4.6 1.2.2 1.8-.3.2-.7.4-1 .4zM53.7 65c-.5 0-.9-.2-1.2-.6l-7.4-10.1c-.5-.6-.4-1.6.2-2.1s1.6-.4 2.1.2c0 .1.1.1.1.2l6.2 8.5 12.8-15.9c.4-.7 1.4-.9 2.1-.5.7.4.9 1.4.5 2.1-.1 0-.1.1-.2.2l-14 17.4c-.3.4-.7.6-1.2.6zM100.5 43.8c-.4 0-.8-.2-1-.5C86.6 24.2 60.8 19 41.6 31.8c-.6.3-1.4.1-1.7-.4-.3-.5-.2-1.3.3-1.6 20.3-13.5 47.7-8 61.3 12.2.4.6.2 1.3-.3 1.7-.2 0-.5.1-.7.1zM28.1 45.2c-.7 0-1.3-.5-1.3-1.2 0-.2.1-.5.2-.7.3-.4.5-.8.8-1.2.4-.6 1.2-.7 1.7-.3.6.4.7 1.2.3 1.7-.3.4-.5.8-.8 1.2-.1.3-.5.5-.9.5z"/><path class="st0" d="M22.1 61.3h-.2c-.7-.1-1.1-.8-1-1.4.9-5.9 2.9-11.5 6.1-16.6.3-.6 1.1-.8 1.7-.5s.8 1.1.5 1.7c0 0 0 .1-.1.1-3 4.8-4.9 10.1-5.8 15.7-.1.6-.6 1-1.2 1zM64.7 111c-16.6 0-31.8-9.2-39.4-23.9-.3-.6-.1-1.4.5-1.7.6-.3 1.4-.1 1.7.5 10.7 20.5 35.9 28.5 56.5 17.9 7.7-4 13.9-10.2 17.9-17.9.3-.6 1.1-.9 1.7-.5.6.3.9 1.1.5 1.7-7.6 14.7-22.8 23.9-39.4 23.9zM107.7 64.6c-.7 0-1.2-.5-1.2-1.2-.5-7.2-3-14.2-7-20.2-.4-.6-.3-1.3.3-1.7s1.3-.3 1.7.3v.1c4.3 6.4 6.9 13.7 7.5 21.4.1.7-.5 1.3-1.2 1.3h-.1z"/></g></svg>